<svg width="37" height="44" viewBox="0 0 37 44" fill="none" xmlns="http://www.w3.org/2000/svg">
<path d="M25.2116 7.02334C26.6171 5.38549 27.5922 3.13691 27.5922 0.888328C27.5922 0.582965 27.5636 0.249842 27.5062 0C25.2403 0.0832808 22.4868 1.47129 20.8519 3.35899C19.5612 4.77476 18.3566 7.02334 18.3566 9.29968C18.3566 9.63281 18.414 9.99369 18.4426 10.1047C18.586 10.1325 18.8155 10.1603 19.045 10.1603C21.1101 10.1603 23.6915 8.82776 25.2116 7.02334ZM26.8178 10.6322C23.376 10.6322 20.5938 12.6587 18.8155 12.6587C16.9225 12.6587 14.3984 10.7432 11.4155 10.7432C5.76512 10.7432 0 15.2959 0 23.8183C0 29.176 2.15116 34.7836 4.76124 38.4202C7.02713 41.5016 9.0062 44 11.8171 44C14.6279 44 15.8899 42.1956 19.3891 42.1956C22.9171 42.1956 23.7202 43.9445 26.8178 43.9445C29.9155 43.9445 31.9519 41.224 33.8736 38.5312C36.0535 35.4498 36.9713 32.4517 37 32.2852C36.8279 32.2297 30.9194 29.9256 30.9194 23.3741C30.9194 17.7388 35.5659 15.2126 35.824 15.0183C32.7837 10.7432 28.1085 10.6322 26.8178 10.6322Z" fill="black"/>
</svg>
